<?xml version="1.0" encoding="utf-8"?>
<!-- Generator: Adobe Illustrator 16.0.0, SVG Export Plug-In . SVG Version: 6.00 Build 0)  -->
<!DOCTYPE svg PUBLIC "-//W3C//DTD SVG 1.1//EN" "http://www.w3.org/Graphics/SVG/1.1/DTD/svg11.dtd">
<svg version="1.1" xmlns="http://www.w3.org/2000/svg" xmlns:xlink="http://www.w3.org/1999/xlink" x="0px" y="0px" width="900px"
	 height="496.5px" viewBox="0 0 900 496.5" enable-background="new 0 0 900 496.5" xml:space="preserve">
<g id="Layer_1" display="none">
	<g display="inline">
		<path d="M486.981,107.139c0-40.314-6.175-81.524-51.967-81.524c-11.422,0-27.956,1.976-39.629,19.064
			c-11.315,16.639-12.536,52.157-12.536,66.654c0,50.981,14.3,69.937,52.764,69.937C478.575,181.27,486.981,154.089,486.981,107.139
			z M423,79.378c0-24.245,7.864-25.036,11.7-25.312c4.311,0.299,12.3,1.064,12.3,26.711v44.933c0,19.288-4.111,27.517-11.503,27.517
			c-7.979,0-12.497-8.919-12.497-28.916V79.378z"/>
		<path d="M361.931,143.451c-2.724-23.494-9.038-30.212-18.873-33.271c9.403-3.426,22.484-12.483,22.484-38.396
			c0-21.55-10.926-44.784-41.585-44.784H268v150h41v-55.005c12,0.323,15.187,2.727,16.904,30.2
			c0.777,12.781,1.059,16.17,2.01,23.012l0.061,1.793h39.382l-0.688-1.829C365.293,170.053,364.68,167.784,361.931,143.451z M309,55
			h4.771c6.546,0,12.938,2.238,12.938,21c0,11.935-2.099,20-12.54,20H309V55z"/>
		<path d="M596.317,167.708c5.051-6.086,12.684-15.286,12.684-38.804c0-4.458-0.18-9.723-2.427-22.371L606.275,104H571.84
			l0.313,5.836c0.278,4.317,0.418,6.911,0.418,9.854c0,20.554-3.396,29.929-12.487,29.929c-8.447,0-11.084-6.832-11.084-24.91
			V95.754c0-7.754-0.654-31.354,3.407-37.631c2.142-3.292,5.044-4.465,7.351-4.465c8.994,0,9.981,10.546,9.981,19.734
			c0,2.201-0.169,3.417-0.34,6.456L568.875,88h34.059l0.255-1.437c1.426-9.588,1.816-13.449,1.816-18.518
			c0-39.511-33.812-42.506-44.177-42.506c-54.162,0-54.162,56.319-54.162,89.946c0,27.593,4.708,42.918,16.79,54.602
			c10.386,10.186,25.392,11.372,35.775,11.372c19.247,0,26.382-4.947,36.428-13.025L596.317,167.708z"/>
		<path d="M246.65,335.423c-2.723-23.489-9.039-30.214-18.872-33.271c9.401-3.426,22.482-12.967,22.482-38.879
			c0-21.556-10.922-45.273-41.581-45.273H154v151h41v-55.032c12,0.323,14.549,2.729,16.266,30.202
			c0.77,12.703,0.76,16.324,1.674,22.905L212.691,369h39.391l-0.691-1.846C250.018,362.061,249.402,359.785,246.65,335.423z
			 M195,247h3.495c6.547,0,12.938,2.24,12.938,21.002c0,11.934-2.097,19.998-12.538,19.998H195V247z"/>
		<path d="M76,312h17v13.477c0,3.688-1.806,15.729-12.697,15.729c-9.97,0-12.303-8.812-12.303-18.331v-33.747
			c0-28.769,1.337-35.931,3.631-39.627c1.757-2.701,4.42-4.067,7.756-4.067c8.409,0,9.582,9.568,9.582,18.931
			c0,1.739,0.022,3.536-0.373,10.878l-0.108,2.203l35.109-0.908l0.045-1.944c0.395-18.146-0.134-35.34-10.812-46.255
			c-7.206-7.365-18.118-10.945-33.36-10.945c-11.044,0-23.699,1.426-33.821,12.002c-11.012,11.403-18.346,28.748-18.346,76.31
			c0,32.483,3.838,67.146,40.178,67.146c13.567,0,20.52-5.397,25.52-9.976V369h32v-81H76V312z"/>
		<polygon points="317,308 354,308 354,279 317,279 317,251 362,251 362,218 276,218 276,369 366,369 366,337 317,337 		"/>
		<path d="M504.138,277.109c-16.579-8.09-20.626-12.197-20.626-20.938c0-7.484,4.497-10.142,8.35-10.142
			c7.958,0,9.146,8.981,9.146,14.336c0,0.973-0.107,2.14-0.308,4.446l-0.474,5.627l32.293-0.681l0.291-1.649
			c0.688-3.911,1.43-10.062,1.43-14.332c0-11.728-5.577-19.017-7.421-21.422c-9.118-11.725-20.419-13.619-33.178-14.76l-0.562,0.018
			c-8.241,0.597-17.579,1.277-28.099,8.297c-12.138,7.935-19.097,21.586-19.097,37.451c0,26.104,18.145,34.981,35.69,43.57
			c14.604,7.202,21.621,11.217,21.621,23.732c0,8.695-4.875,14.536-12.137,14.536c-7.788,0-11.739-5.968-11.739-17.734
			c0-1.685,0.207-3.565,0.983-10.56l0.256-2.312l-33.588,0.681l-0.264,1.689c-1.352,8.68-1.622,11.98-1.622,14.495
			c0,9.804,3.388,41.782,46.975,41.782c24.25,0,50.166-12.496,50.166-47.57C542.227,297.898,523.408,286.451,504.138,277.109z"/>
		<path d="M873.668,367.154c-1.374-5.104-1.987-7.742-4.736-32.096c-2.725-23.494-9.042-30.031-18.873-33.086
			c9.405-3.426,22.486-12.878,22.486-38.789c0-21.556-10.928-45.185-41.587-45.185H778v151h37v-55.032
			c12,0.323,15.688,2.729,17.403,30.202c0.776,12.724,1.336,16.349,2.253,22.938l0.316,1.893h39.388L873.668,367.154z M815,247
			h5.776c6.544,0,12.938,2.24,12.938,21.002c0,11.934-2.101,19.998-12.544,19.998H815V247z"/>
		<polygon points="602,218 566,218 566,369 643,369 643,337 602,337 		"/>
		<polygon points="704,308 741,308 741,279 704,279 704,251 749,251 749,218 668,218 668,369 753,369 753,337 704,337 		"/>
		<rect x="386" y="218" width="37" height="151"/>
	</g>
</g>
<g id="Layer_2">
	<path d="M434.783,180.242c43.07,0,51.496-27.252,51.496-74.325c0-40.418-6.189-81.735-52.097-81.735
		c-11.452,0-28.03,1.98-39.729,19.112c-11.343,16.681-12.568,52.292-12.568,66.828C381.885,161.237,396.221,180.242,434.783,180.242
		z M433.785,52.68c4.325,0.301,11.382,1.068,11.382,26.801v45.06c0,24.327-5.351,27.608-10.585,27.608
		c-8.013,0-11.587-8.947-11.587-29.009V78.08C422.995,53.751,429.933,52.958,433.785,52.68z"/>
	<path d="M306.622,120.801c12.639,0.321,15.847,2.723,17.571,30.297c0.774,12.775,1.381,17.141,2.301,23.75l0.36,2.59h39.466
		l-0.689-2.559c-1.377-5.111-1.993-8.121-4.75-32.549c-2.734-23.582-9.08-30.303-18.959-33.363
		c9.427-3.424,22.577-12.283,22.577-38.299c0-21.603-10.95-44.687-41.684-44.687h-55.101v151.456h38.907V120.801z M306.622,54.276
		h5.979c6.572,0,12.988,1.576,12.988,20.4c0,11.975-2.105,19.397-12.587,19.397h-6.381V54.276z"/>
	<path d="M522.877,169.047c11.624,11.396,29.871,11.396,35.868,11.396c19.288,0,26.442-4.964,36.518-13.064l0.658-0.729
		c5.065-6.104,12.718-15.329,12.718-38.906c0-4.454-0.179-8.87-2.436-21.582l-0.297-1.676h-34.505l0.321,5.101
		c0.273,4.273,0.411,6.418,0.411,9.345c0,20.617-4.067,29.812-13.189,29.812c-8.482,0-11.787-7.067-11.787-25.205V94.502
		c0-7.777,0-31.443,4.078-37.745c2.148-3.305,5.391-4.483,7.709-4.483c4.741,0,10.185,2.25,10.185,19.797
		c0,2.203-0.088,3.751-0.26,6.835c-0.091,1.589-0.202,3.584-0.337,6.281l-0.107,2.132h34.126l0.258-1.732
		c1.433-9.613,1.824-13.638,1.824-18.723c0-39.606-33.897-42.684-44.286-42.684c-23.21,0-38.466,9.79-46.641,29.929
		c-7.066,17.41-7.658,40.212-7.658,60.218C506.048,141.993,510.769,157.336,522.877,169.047z"/>
	<path d="M250.03,367.387c-1.377-5.117-1.993-8.13-4.75-32.548c-2.733-23.583-9.077-30.305-18.955-33.365
		c9.425-3.424,22.573-12.286,22.573-38.297c0-27.564-15.972-44.688-41.682-44.688h-55.101v151.456h38.907v-56.639
		c12.639,0.322,15.848,2.724,17.57,30.299c0.775,12.774,1.383,17.14,2.303,23.749l0.36,2.591h39.464L250.03,367.387z
		 M191.021,246.783h5.98c6.284,0,12.989,1.576,12.989,20.399c0,11.975-2.106,19.396-12.587,19.396h-6.381V246.783z"/>
	<polygon points="365.85,336.444 315.783,336.444 315.783,308.464 352.633,308.464 352.633,276.766 315.783,276.766 
		315.783,251.989 360.042,251.989 360.042,218.489 276.876,218.489 276.876,369.945 365.85,369.945 	"/>
	<path d="M874.044,367.387c-1.377-5.11-1.992-8.12-4.75-32.548c-2.734-23.583-9.078-30.305-18.956-33.365
		c9.427-3.423,22.573-12.284,22.573-38.297c0-27.564-15.972-44.688-41.683-44.688h-55.102v151.456h38.908v-56.639
		c12.639,0.322,15.847,2.724,17.57,30.299c0.774,12.784,1.351,16.917,2.305,23.766l0.357,2.574h39.465L874.044,367.387z
		 M815.035,246.783h5.979c6.283,0,12.987,1.576,12.987,20.399c0,11.975-2.105,19.396-12.586,19.396h-6.381V246.783z"/>
	<polygon points="704.692,308.464 741.54,308.464 741.54,276.766 704.692,276.766 704.692,251.989 748.949,251.989 748.949,218.489 
		665.783,218.489 665.783,369.945 754.758,369.945 754.758,336.444 704.692,336.444 	"/>
	<path d="M503.49,276.373c-16.627-8.113-20.688-12.235-20.688-21.007c0-7.518,4.516-10.185,8.382-10.185
		c7.99,0,9.184,9.016,9.184,14.391c0,0.946-0.107,2.177-0.32,4.627l-0.462,5.461l32.36-0.684l0.291-1.644
		c0.689-3.906,1.432-10.069,1.432-14.37c0-11.744-5.59-19.057-7.437-21.474c-9.136-11.744-20.47-13.648-33.265-14.794l-0.164-0.015
		l-0.398,0.029c-8.259,0.604-17.62,1.287-28.166,8.318c-12.166,7.955-19.144,21.641-19.144,37.548
		c0,26.167,18.192,35.069,35.779,43.677c14.654,7.227,21.697,11.257,21.697,23.812c0,8.727-4.898,14.591-12.188,14.591
		c-7.822,0-11.787-5.988-11.787-17.796c0-1.694,0.209-3.579,0.988-10.59l0.256-2.303l-33.658,0.687l-0.262,1.683
		c-1.354,8.706-1.625,12.014-1.625,14.531c0,38.863,36.043,41.883,47.09,41.883c16.832,0,29.853-4.923,38.7-14.633
		c7.585-8.324,11.594-19.755,11.594-33.059C541.678,297.217,522.811,285.74,503.49,276.373z"/>
	<polygon points="602.358,218.489 563.45,218.489 563.45,369.945 642.612,369.945 642.612,336.444 602.358,336.444 	"/>
	<rect x="385.218" y="218.489" width="38.908" height="151.456"/>
	<path d="M74.213,310.668h15.42v14.189c0,3.704-0.85,15.792-11.787,15.792c-10.007,0-11.387-8.841-11.387-18.395v-33.847
		c0-28.85,1.179-36.031,3.475-39.742c1.768-2.711,4.363-4.085,7.712-4.085c8.444,0,9.583,9.604,9.583,18.997
		c0,1.745,0,3.55-0.396,10.903l-0.119,2.196l35.174-0.906l0.042-1.937c0.396-18.195-0.134-35.433-10.841-46.375
		c-7.225-7.384-18.165-10.974-33.444-10.974c-11.068,0-23.751,1.431-33.905,12.036c-11.041,11.434-18.394,28.82-18.394,76.51
		c0,32.569,3.05,67.316,39.48,67.316c13.623,0,20.869-5.433,24.805-10.026v7.623h35.704V287.98H74.213V310.668z"/>
	<g>
		<path d="M261.062,441.717c-1.834-1.835-4.038-3.263-6.547-4.243c-2.513-0.981-5.291-1.479-8.259-1.479
			c-2.97,0-5.748,0.497-8.258,1.479c-2.509,0.979-4.712,2.407-6.55,4.243c-1.833,1.839-3.28,4.091-4.301,6.693
			c-1.021,2.604-1.539,5.546-1.539,8.743c0,3.196,0.518,6.139,1.539,8.742c1.022,2.608,2.47,4.859,4.301,6.69
			c1.832,1.833,4.035,3.262,6.549,4.246c2.511,0.981,5.289,1.479,8.258,1.479c2.968,0,5.746-0.497,8.259-1.479
			c2.515-0.985,4.718-2.414,6.547-4.246c1.832-1.83,3.279-4.081,4.303-6.69c1.02-2.602,1.538-5.543,1.538-8.742
			c0-3.2-0.518-6.142-1.538-8.743C264.344,445.806,262.896,443.555,261.062,441.717z M246.256,469.618
			c-1.721,0-3.3-0.312-4.692-0.927c-1.394-0.615-2.603-1.485-3.595-2.586c-0.998-1.103-1.773-2.425-2.306-3.93
			c-0.536-1.506-0.808-3.195-0.808-5.022c0-1.791,0.272-3.473,0.808-4.997c0.532-1.52,1.308-2.851,2.306-3.956
			c0.994-1.101,2.204-1.972,3.595-2.588c1.388-0.613,2.967-0.925,4.692-0.925c1.725,0,3.304,0.312,4.691,0.925
			c1.389,0.615,2.599,1.485,3.595,2.587c0.997,1.104,1.772,2.437,2.306,3.957c0.537,1.528,0.808,3.21,0.808,4.997
			c0,1.823-0.271,3.513-0.808,5.022c-0.534,1.506-1.31,2.828-2.306,3.93c-0.994,1.101-2.203,1.972-3.595,2.586
			C249.556,469.307,247.978,469.618,246.256,469.618z"/>
		<path d="M202.924,465.504c-0.819,1.295-1.875,2.315-3.137,3.033c-1.261,0.717-2.732,1.081-4.371,1.081
			c-1.435,0-2.795-0.311-4.042-0.922c-1.251-0.613-2.355-1.481-3.28-2.582c-0.93-1.106-1.673-2.431-2.208-3.938
			c-0.534-1.506-0.806-3.195-0.806-5.022c0-1.791,0.271-3.473,0.807-4.997c0.534-1.524,1.286-2.858,2.233-3.964
			c0.94-1.098,2.07-1.968,3.356-2.584c1.281-0.61,2.696-0.921,4.206-0.921c1.507,0,2.85,0.272,3.993,0.809
			c1.139,0.54,2.113,1.321,2.895,2.322l0.202,0.256l6.857-5.894l-0.176-0.234c-0.833-1.104-1.787-2.05-2.833-2.81
			c-1.049-0.761-2.155-1.377-3.288-1.831c-1.14-0.456-2.307-0.791-3.469-0.997c-1.162-0.208-2.299-0.313-3.382-0.313
			c-2.969,0-5.747,0.497-8.258,1.479c-2.51,0.979-4.712,2.407-6.549,4.243c-1.833,1.838-3.279,4.09-4.301,6.692
			s-1.54,5.544-1.54,8.744c0,3.199,0.518,6.141,1.54,8.742c1.023,2.609,2.47,4.86,4.301,6.69c1.831,1.833,4.034,3.262,6.549,4.246
			c2.511,0.981,5.289,1.479,8.258,1.479c2.621,0,5.208-0.575,7.688-1.709c2.49-1.141,4.575-2.931,6.198-5.32l0.163-0.24
			l-7.421-5.828L202.924,465.504z"/>
		<path d="M575.99,437.005h-7.286l-16.545,40.296h9.839l3.14-8.405h14.209l3.248,8.405h10.05l-16.574-40.104L575.99,437.005z
			 M576.289,460.877h-8.311l4.131-11.128L576.289,460.877z"/>
		<polygon points="600.598,445.359 611.352,445.359 611.352,477.301 620.28,477.301 620.28,445.359 631.032,445.359 
			631.032,437.005 600.598,437.005 		"/>
		<polygon points="657.171,461.163 673.514,461.163 673.514,452.471 657.171,452.471 657.171,445.694 674.474,445.694 
			674.474,437.005 648.243,437.005 648.243,477.301 675.431,477.301 675.431,468.608 657.171,468.608 		"/>
		<path d="M722.061,456.688c1.417-2.007,2.135-4.472,2.135-7.326c0-2.353-0.396-4.351-1.178-5.938
			c-0.783-1.587-1.854-2.869-3.188-3.813c-1.324-0.934-2.883-1.611-4.636-2.013c-1.742-0.394-3.602-0.593-5.525-0.593h-14.897
			v40.296h8.928v-15.857h3.595l7.794,15.686l0.085,0.172h10.685l-9.638-16.852C718.745,459.866,720.709,458.603,722.061,456.688z
			 M703.699,445.023h5.118c0.728,0,1.482,0.056,2.246,0.164c0.735,0.105,1.401,0.312,1.974,0.612c0.555,0.293,1.017,0.72,1.375,1.27
			c0.355,0.542,0.535,1.295,0.535,2.237c0,1.01-0.203,1.795-0.603,2.336c-0.415,0.557-0.921,0.955-1.548,1.215
			c-0.638,0.267-1.366,0.43-2.164,0.483c-0.811,0.053-1.601,0.081-2.348,0.081h-4.586V445.023z"/>
		<polygon points="377.971,437.005 366.268,437.005 352.079,452.971 352.079,437.005 343.152,437.005 343.152,477.301 
			352.079,477.301 352.079,459.038 366.859,477.187 366.952,477.301 379.383,477.301 360.914,455.758 		"/>
		<path d="M531.493,465.504c-0.819,1.294-1.875,2.314-3.138,3.033c-1.262,0.717-2.733,1.081-4.373,1.081
			c-1.434,0-2.793-0.311-4.041-0.922c-1.254-0.614-2.356-1.482-3.278-2.582c-0.931-1.103-1.674-2.429-2.209-3.938
			c-0.536-1.507-0.808-3.197-0.808-5.022c0-1.789,0.272-3.47,0.81-4.997c0.532-1.524,1.284-2.857,2.229-3.963
			c0.945-1.1,2.075-1.971,3.359-2.585c1.28-0.61,2.694-0.921,4.204-0.921c1.508,0,2.852,0.272,3.993,0.809
			c1.139,0.539,2.114,1.32,2.896,2.322l0.201,0.256l6.857-5.896l-0.177-0.232c-0.835-1.106-1.788-2.053-2.833-2.81
			c-1.049-0.761-2.155-1.376-3.288-1.831c-1.141-0.456-2.308-0.791-3.469-0.997c-1.16-0.208-2.299-0.313-3.382-0.313
			c-2.97,0-5.747,0.497-8.258,1.479c-2.509,0.979-4.712,2.407-6.548,4.243c-1.833,1.836-3.281,4.089-4.303,6.693
			c-1.021,2.603-1.538,5.544-1.538,8.743c0,3.198,0.517,6.14,1.538,8.743c1.023,2.608,2.471,4.859,4.303,6.689
			c1.83,1.833,4.033,3.262,6.548,4.246c2.511,0.981,5.288,1.479,8.258,1.479c2.619,0,5.206-0.575,7.69-1.709
			c2.49-1.142,4.576-2.932,6.195-5.32l0.162-0.24l-7.419-5.828L531.493,465.504z"/>
		<path d="M318.663,441.717c-1.834-1.835-4.038-3.263-6.547-4.243c-2.513-0.981-5.291-1.479-8.259-1.479
			c-2.969,0-5.747,0.497-8.258,1.479c-2.51,0.979-4.712,2.407-6.549,4.243c-1.834,1.839-3.281,4.091-4.302,6.692
			s-1.539,5.543-1.539,8.744c0,3.2,0.518,6.142,1.539,8.742c1.022,2.608,2.47,4.859,4.302,6.69c1.831,1.833,4.034,3.262,6.549,4.246
			c2.511,0.981,5.29,1.479,8.258,1.479c2.968,0,5.746-0.497,8.259-1.479c2.515-0.985,4.718-2.414,6.547-4.246
			c1.832-1.83,3.279-4.081,4.303-6.69c1.021-2.603,1.538-5.544,1.538-8.742c0-3.199-0.518-6.141-1.538-8.743
			C321.944,445.806,320.497,443.555,318.663,441.717z M303.857,469.618c-1.721,0-3.3-0.312-4.692-0.927
			c-1.394-0.617-2.603-1.486-3.595-2.586c-0.997-1.102-1.773-2.425-2.308-3.93c-0.535-1.507-0.806-3.196-0.806-5.022
			c0-1.789,0.271-3.472,0.807-4.997c0.533-1.521,1.309-2.851,2.307-3.956c0.994-1.101,2.204-1.971,3.595-2.588
			c1.388-0.613,2.967-0.925,4.692-0.925c1.723,0,3.302,0.312,4.692,0.925c1.389,0.616,2.599,1.487,3.595,2.587
			c0.997,1.104,1.772,2.437,2.306,3.957c0.536,1.527,0.808,3.208,0.808,4.997c0,1.825-0.272,3.516-0.808,5.022
			c-0.534,1.506-1.31,2.828-2.306,3.93c-0.994,1.101-2.203,1.971-3.594,2.586C307.156,469.307,305.576,469.618,303.857,469.618z"/>
		<path d="M460.334,456.224h-10.031l-3.54,5.078l-4.325-4.852c0.849-0.489,1.653-1.047,2.396-1.665
			c0.848-0.699,1.609-1.509,2.264-2.408c0.653-0.898,1.177-1.876,1.557-2.906c0.384-1.04,0.579-2.188,0.579-3.413
			c0-1.72-0.315-3.228-0.938-4.48c-0.619-1.247-1.461-2.301-2.507-3.134c-1.04-0.824-2.249-1.446-3.592-1.847
			c-2.681-0.805-5.824-0.779-8.687-0.032c-1.451,0.383-2.759,1.004-3.886,1.847c-1.135,0.848-2.052,1.94-2.726,3.244
			c-0.676,1.307-1.019,2.901-1.019,4.737c0,0.999,0.102,1.911,0.301,2.71c0.2,0.808,0.496,1.586,0.879,2.312
			c0.379,0.724,0.838,1.419,1.363,2.067c0.434,0.536,0.9,1.1,1.398,1.689c-1.003,0.399-1.944,0.914-2.801,1.533
			c-0.984,0.712-1.856,1.552-2.593,2.498c-0.746,0.958-1.335,2.033-1.75,3.197c-0.418,1.166-0.63,2.417-0.63,3.719
			c0,2.021,0.387,3.82,1.149,5.351c0.765,1.531,1.807,2.82,3.095,3.832c1.287,1.012,2.764,1.774,4.387,2.267
			c1.62,0.492,3.316,0.743,5.042,0.743c2.264,0,4.337-0.386,6.163-1.146c1.733-0.723,3.379-1.886,4.896-3.462l3.009,3.598h11.119
			l-8.711-9.692L460.334,456.224z M436.038,470.289c-0.601,0-1.198-0.114-1.775-0.341c-0.582-0.227-1.097-0.538-1.531-0.923
			c-0.426-0.379-0.777-0.855-1.044-1.417c-0.262-0.552-0.395-1.184-0.395-1.882c0-0.701,0.116-1.317,0.345-1.835
			c0.231-0.523,0.543-0.994,0.926-1.396c0.395-0.415,0.844-0.797,1.336-1.136c0.438-0.301,0.883-0.599,1.335-0.887l6.279,7.189
			c-0.795,0.715-1.608,1.332-2.418,1.834C438.245,470.022,437.217,470.289,436.038,470.289z M435.454,444.267
			c0.656-0.621,1.439-0.924,2.395-0.924c0.963,0,1.759,0.278,2.434,0.851c0.66,0.561,0.981,1.354,0.981,2.423
			c0,0.51-0.126,0.983-0.386,1.445c-0.274,0.485-0.615,0.934-1.016,1.335c-0.408,0.414-0.86,0.798-1.342,1.142
			c-0.404,0.289-0.795,0.553-1.166,0.787c-0.268-0.254-0.553-0.532-0.857-0.838c-0.361-0.36-0.689-0.751-0.977-1.162
			c-0.286-0.406-0.536-0.842-0.742-1.296c-0.194-0.425-0.292-0.863-0.292-1.301C434.488,445.688,434.804,444.883,435.454,444.267z"
			/>
	</g>
</g>
</svg>
