<?xml version="1.0" encoding="utf-8"?>
<!-- Generator: Adobe Illustrator 16.0.0, SVG Export Plug-In . SVG Version: 6.00 Build 0)  -->
<!DOCTYPE svg PUBLIC "-//W3C//DTD SVG 1.1//EN" "http://www.w3.org/Graphics/SVG/1.1/DTD/svg11.dtd">
<svg version="1.1" id="Layer_1" xmlns="http://www.w3.org/2000/svg" xmlns:xlink="http://www.w3.org/1999/xlink" x="0px" y="0px"
	 width="900px" height="400px" viewBox="0 0 900 400" enable-background="new 0 0 900 400" xml:space="preserve">
<g>
	<path d="M486.981,107.139c0-40.314-6.175-81.524-51.967-81.524c-11.422,0-27.956,1.976-39.629,19.064
		c-11.315,16.639-12.536,52.157-12.536,66.654c0,50.981,14.3,69.937,52.764,69.937C478.576,181.27,486.981,154.089,486.981,107.139z
		 M423,79.378c0-24.245,7.865-25.036,11.701-25.312C439.011,54.365,447,55.13,447,80.777v44.933
		c0,19.288-4.111,27.517-11.502,27.517c-7.98,0-12.498-8.919-12.498-28.916V79.378z"/>
	<path d="M361.931,143.451c-2.723-23.494-9.038-30.212-18.873-33.271c9.403-3.426,22.484-12.483,22.484-38.396
		c0-21.55-10.925-44.784-41.585-44.784H268v150h41v-55.005c12,0.323,15.187,2.727,16.905,30.2c0.777,12.781,1.058,16.17,2.01,23.012
		l0.06,1.793h39.382l-0.689-1.829C365.293,170.053,364.68,167.784,361.931,143.451z M309,55h4.772c6.546,0,12.938,2.238,12.938,21
		c0,11.935-2.098,20-12.54,20H309V55z"/>
	<path d="M596.317,167.708c5.051-6.086,12.683-15.286,12.683-38.804c0-4.458-0.179-9.723-2.426-22.371L606.275,104H571.84
		l0.314,5.836c0.278,4.317,0.418,6.911,0.418,9.854c0,20.554-3.396,29.929-12.488,29.929c-8.447,0-11.084-6.832-11.084-24.91V95.754
		c0-7.754-0.654-31.354,3.408-37.631c2.141-3.292,5.043-4.465,7.35-4.465c8.994,0,9.982,10.546,9.982,19.734
		c0,2.201-0.169,3.417-0.34,6.456L568.876,88h34.058l0.255-1.437c1.426-9.588,1.816-13.449,1.816-18.518
		c0-39.511-33.811-42.506-44.176-42.506c-54.162,0-54.162,56.319-54.162,89.946c0,27.593,4.708,42.918,16.79,54.602
		c10.385,10.186,25.391,11.372,35.775,11.372c19.247,0,26.382-4.947,36.428-13.025L596.317,167.708z"/>
	<path d="M246.65,335.423c-2.723-23.49-9.039-30.214-18.872-33.27c9.401-3.426,22.482-12.968,22.482-38.88
		c0-21.555-10.922-45.273-41.581-45.273H154v151h41v-55.032c12,0.323,14.549,2.729,16.266,30.202
		c0.769,12.703,0.76,16.324,1.674,22.905L212.691,369h39.39l-0.691-1.845C250.018,362.06,249.402,359.785,246.65,335.423z M195,247
		h3.495c6.547,0,12.938,2.24,12.938,21.002c0,11.934-2.097,19.998-12.538,19.998H195V247z"/>
	<path d="M76,312h17v13.476c0,3.689-1.805,15.73-12.697,15.73c-9.97,0-12.303-8.811-12.303-18.331v-33.747
		c0-28.769,1.337-35.931,3.631-39.627c1.757-2.701,4.42-4.067,7.756-4.067c8.409,0,9.582,9.568,9.582,18.93
		c0,1.74,0.022,3.537-0.373,10.878l-0.108,2.203l35.109-0.908l0.045-1.944c0.394-18.147-0.134-35.34-10.813-46.255
		c-7.206-7.365-18.118-10.946-33.36-10.946c-11.044,0-23.699,1.426-33.821,12.002c-11.012,11.404-18.346,28.748-18.346,76.31
		c0,32.484,3.838,67.145,40.178,67.145c13.567,0,20.519-5.397,25.519-9.975V369h32v-81H76V312z"/>
	<polygon points="317,308 354,308 354,279 317,279 317,251 362,251 362,218 276,218 276,369 366,369 366,337 317,337 	"/>
	<path d="M504.138,277.109c-16.579-8.09-20.626-12.197-20.626-20.937c0-7.484,4.497-10.142,8.35-10.142
		c7.958,0,9.146,8.982,9.146,14.336c0,0.973-0.107,2.14-0.307,4.446l-0.474,5.628l32.293-0.681l0.291-1.649
		c0.688-3.912,1.43-10.062,1.43-14.332c0-11.728-5.577-19.017-7.421-21.423c-9.118-11.724-20.419-13.619-33.178-14.759l-0.562,0.017
		c-8.242,0.597-17.579,1.278-28.099,8.297c-12.138,7.935-19.097,21.586-19.097,37.452c0,26.103,18.145,34.981,35.691,43.57
		c14.603,7.202,21.621,11.217,21.621,23.732c0,8.696-4.875,14.536-12.137,14.536c-7.788,0-11.739-5.968-11.739-17.734
		c0-1.685,0.207-3.565,0.983-10.56l0.256-2.311l-33.588,0.681l-0.263,1.689c-1.352,8.68-1.623,11.981-1.623,14.495
		c0,9.803,3.388,41.782,46.975,41.782c24.25,0,50.166-12.496,50.166-47.57C542.227,297.899,523.409,286.451,504.138,277.109z"/>
	<path d="M873.668,367.155c-1.374-5.104-1.987-7.743-4.736-32.097c-2.725-23.494-9.042-30.03-18.873-33.085
		c9.405-3.426,22.486-12.878,22.486-38.79c0-21.555-10.927-45.184-41.587-45.184H778v151h37v-55.032
		c12,0.323,15.688,2.729,17.404,30.202c0.776,12.723,1.336,16.349,2.253,22.938l0.316,1.893h39.388L873.668,367.155z M815,247h5.777
		c6.544,0,12.938,2.24,12.938,21.002c0,11.934-2.1,19.998-12.544,19.998H815V247z"/>
	<polygon points="602,218 566,218 566,369 643,369 643,337 602,337 	"/>
	<polygon points="704,308 741,308 741,279 704,279 704,251 749,251 749,218 668,218 668,369 753,369 753,337 704,337 	"/>
	<rect x="386" y="218" width="37" height="151"/>
</g>
</svg>
